0
SECTION
2
HEADER
9
$INSUNITS
70
4
0
ENDSEC
0
SECTION
2
ENTITIES
0
LWPOLYLINE
8
Edge.Cuts
90
8
70
1
10
3.0000
20
0.0000
10
77.0000
20
0.0000
42
0.414214
10
80.0000
20
3.0000
10
80.0000
20
57.0000
42
0.414214
10
77.0000
20
60.0000
10
3.0000
20
60.0000
42
0.414214
10
0.0000
20
57.0000
10
0.0000
20
3.0000
42
0.414214
0
LWPOLYLINE
8
Edge.Cuts
90
4
70
1
10
50.0000
20
38.0000
10
70.0000
20
38.0000
10
70.0000
20
50.0000
10
50.0000
20
50.0000
0
CIRCLE
8
Edge.Cuts
10
4.0000
20
4.0000
40
1.6000
0
CIRCLE
8
Edge.Cuts
10
4.0000
20
56.0000
40
1.6000
0
CIRCLE
8
Edge.Cuts
10
76.0000
20
4.0000
40
1.6000
0
CIRCLE
8
Edge.Cuts
10
76.0000
20
56.0000
40
1.6000
0
ENDSEC
0
EOF
